# xmcd CD database file
#
# Track frame offsets:
#	150
#	1599
#	4689
#	19921
#	23505
#	24696
#	26546
#	33903
#	53248
#	54753
#	69977
#	99956
#	123561
#	125644
#	142505
#	143534
#	151012
#	166351
#	177459
#	178980
#	190880
#	212566
#
# Disc length: 3073 seconds
#
# Revision: 0
# Processed by: cddbd v1.5.1PL2 Copyright (c) Steve Scherf et al.
# Submitted via: CDex 1.51
#
DISCID=0d0bff16
DTITLE=Shirley Friend - Verbal Intercourse
DYEAR=2003
DGENRE=Country
TTITLE0=Introduction By Marco Gliori
TTITLE1=Intro To Breast
TTITLE2=Breast Is Best
TTITLE3=Sneeze Repaired
TTITLE4=Fertility
TTITLE5=Eggs
TTITLE6=Intro Vasectomy
TTITLE7=Vasectomy
TTITLE8=Intro Bathers
TTITLE9=Bathers
TTITLE10=Standup
TTITLE11=Multi Magic
TTITLE12=Intro 50 Something
TTITLE13=50 Something
TTITLE14=Intro Maltesers
TTITLE15=Maltesers
TTITLE16=Specimen
TTITLE17=Mammalogue
TTITLE18=Intro Mammagram
TTITLE19=Mammagram
TTITLE20=Order In The Court
TTITLE21=Judge Shirley
EXTD=YEAR: 2003
EXTT0=
EXTT1=
EXTT2=
EXTT3=
EXTT4=
EXTT5=
EXTT6=
EXTT7=
EXTT8=
EXTT9=
EXTT10=
EXTT11=
EXTT12=
EXTT13=
EXTT14=
EXTT15=
EXTT16=
EXTT17=
EXTT18=
EXTT19=
EXTT20=
EXTT21=
PLAYORDER=
